<svg xmlns="http://www.w3.org/2000/svg" xmlns:svg="http://www.w3.org/2000/svg" xmlns:xlink="http://www.w3.org/1999/xlink" version="1.0" height="575.5pt" width="1065pt" viewBox="210 417 1073 581.5" ><defs><style type="text/css">
            @font-face {
                font-family: 'noto_regular';
                src: url('https://app.creately.com/diagram/assets/fonts/noto/noto-regular.woff') format('woff'),
                     url('https://app.creately.com/diagram/assets/fonts/noto/noto-regular.woff2') format('woff2');
                font-weight: normal;
                font-style: normal;
            }
        p {
            margin: 0;
        }
        </style></defs><defs><style>
            span{ display: inline-block; }
        </style></defs><g id="djrqg9cehz"><g transform="translate(399 620)"><rect x="0" y="0" width="100" height="50" fill="rgba(255,255,255,1)" stroke="#5e5ca7" stroke-width="1.5" stroke-linecap="round" stroke-linejoin="round"/></g><g transform="translate(411, 635.5) rotate(0, 38, 9.5)" width="76" height="19"><text text-decoration="none" x="7.5" fill="rgb(0, 0, 0)" font-weight="bold" font-size="10pt" font-family="Arial"  y="15">passenger</text><text text-decoration="none" x="68.5" fill="#4b4b4b" font-size="10pt" font-family="noto_regular"  y="15"></text></g></g><g id="2ht7oy0bmj"><g transform="translate(215 570)"><ellipse cx="50" cy="19.499999284744263" rx="50" ry="19.499999284744263" fill="rgba(255,255,255,1)" stroke="#5e5ca7" stroke-width="1.5" stroke-linecap="round" stroke-linejoin="round"/></g><g transform="translate(237.5, 579.9999992847443) rotate(0, 27.5, 9.5)" width="55" height="19"><text text-decoration="none" x="6" fill="rgb(0, 0, 0)" font-weight="bold" font-size="10pt" font-family="Arial"  y="15">contact</text><text text-decoration="none" x="49" fill="#4b4b4b" font-size="10pt" font-family="noto_regular"  y="15"></text></g></g><g id="13m339jrgs"><g transform="translate(215 680)"><ellipse cx="50" cy="18.48783940076828" rx="50" ry="18.48783940076828" fill="rgba(255,255,255,1)" stroke="#5e5ca7" stroke-width="1.5" stroke-linecap="round" stroke-linejoin="round"/></g><g transform="translate(251.5, 688.9878394007683) rotate(0, 13.5, 9.5)" width="27" height="19"><text text-decoration="none" x="3" fill="rgb(0, 0, 0)" font-weight="bold" font-size="10pt" font-family="Arial"  y="15">age</text><text text-decoration="none" x="24" fill="#4b4b4b" font-size="10pt" font-family="noto_regular"  y="15"></text></g></g><g id="cno2vutxsq"><g transform="translate(295 730)"><ellipse cx="50" cy="21.50000035762787" rx="50" ry="21.50000035762787" fill="rgba(255,255,255,1)" stroke="#5e5ca7" stroke-width="1.5" stroke-linecap="round" stroke-linejoin="round"/></g><g transform="translate(319.5, 742.0000003576279) rotate(0, 25.5, 9.5)" width="51" height="19"><text text-decoration="none" x="5.5" fill="rgb(0, 0, 0)" font-weight="bold" font-size="10pt" font-family="Arial"  y="15">gender</text><text text-decoration="none" x="45.5" fill="#4b4b4b" font-size="10pt" font-family="noto_regular"  y="15"></text></g></g><g id="22z5jvxn9p"><g transform="translate(330 515)"><ellipse cx="50" cy="21.50000035762787" rx="50" ry="21.50000035762787" fill="rgba(255,255,255,1)" stroke="#5e5ca7" stroke-width="1.5" stroke-linecap="round" stroke-linejoin="round"/></g><g transform="translate(351, 527.0000003576279) rotate(0, 29, 9.5)" width="58" height="19"><text text-decoration="none" x="5.5" fill="rgb(0, 0, 0)" font-weight="bold" font-size="10pt" font-family="Arial"  y="15">address</text><text text-decoration="none" x="52.5" fill="#4b4b4b" font-size="10pt" font-family="noto_regular"  y="15"></text></g></g><g id="aima3ihvni"><g transform="translate(500 535)"><ellipse cx="56.99999928474426" cy="20.000001788139343" rx="56.99999928474426" ry="20.000001788139343" fill="rgba(255,255,255,1)" stroke="#5e5ca7" stroke-width="1.5" stroke-linecap="round" stroke-linejoin="round"/></g><g transform="translate(511.99999928474426, 545.5000017881393) rotate(0, 45, 9.5)" width="90" height="19"><text text-decoration="none" x="9" fill="rgb(0, 0, 0)" font-weight="bold" font-size="10pt" font-family="Arial"  y="15">passengerId</text><text text-decoration="none" x="81" fill="#4b4b4b" font-size="10pt" font-family="noto_regular"  y="15"></text></g></g><g id="2gyir1vthv"><g transform="translate(555 590)"><ellipse cx="56.49999976158142" cy="18.5000017285347" rx="56.49999976158142" ry="18.5000017285347" fill="rgba(255,255,255,1)" stroke="#5e5ca7" stroke-width="1.5" stroke-linecap="round" stroke-linejoin="round"/></g><g transform="translate(595.4999997615814, 599.0000017285347) rotate(0, 16, 9.5)" width="32" height="19"><text text-decoration="none" x="3" fill="rgb(0, 0, 0)" font-weight="bold" font-size="10pt" font-family="Arial"  y="15">card</text><text text-decoration="none" x="29" fill="#4b4b4b" font-size="10pt" font-family="noto_regular"  y="15"></text></g></g><g id="227s6rqukf"><g transform="translate(555 690)"><ellipse cx="50" cy="20.000000298023224" rx="50" ry="20.000000298023224" fill="rgba(255,255,255,1)" stroke="#5e5ca7" stroke-width="1.5" stroke-linecap="round" stroke-linejoin="round"/></g><g transform="translate(584.5, 700.5000002980232) rotate(0, 20.5, 9.5)" width="41" height="19"><text text-decoration="none" x="4.5" fill="rgb(0, 0, 0)" font-weight="bold" font-size="10pt" font-family="Arial"  y="15">name</text><text text-decoration="none" x="36.5" fill="#4b4b4b" font-size="10pt" font-family="noto_regular"  y="15"></text></g></g><g id="2f4biy66lo"><g><path d="M 380,560 L 380,589.0000003576279 L 414.5,589.0000003576279 L 449,589.0000003576279 L 449,620" fill="none" stroke="#5e5ca7" stroke-width="1.5" stroke-linecap="round" stroke-linejoin="round"/></g></g><g id="6j005f8o3o"><g><path d="M 500,555 L 484,555 L 484,615" fill="none" stroke="#5e5ca7" stroke-width="1.5" stroke-linecap="round" stroke-linejoin="round"/></g></g><g id="1ff1n54j8l"><g><path d="M 315,590 L 357,590 L 357,617.5 L 357,645 L 399,645" fill="none" stroke="#5e5ca7" stroke-width="1.5" stroke-linecap="round" stroke-linejoin="round"/></g></g><g id="4z5k7q9l67"><g><path d="M 265,680 L 265,660 L 394,660" fill="none" stroke="#5e5ca7" stroke-width="1.5" stroke-linecap="round" stroke-linejoin="round"/></g></g><g id="24g4m2aiy4"><g><path d="M 345,730 L 345,700 L 384.5,700 L 424,700 L 424,670" fill="none" stroke="#5e5ca7" stroke-width="1.5" stroke-linecap="round" stroke-linejoin="round"/></g></g><g id="1sodckxw13"><g><path d="M 605,690 L 605,680 L 544.5,680 L 484,680 L 484,675" fill="none" stroke="#5e5ca7" stroke-width="1.5" stroke-linecap="round" stroke-linejoin="round"/></g></g><g id="3bk6ggqpgn"><g><path d="M 555,610 L 527,610 L 527,627.5 L 527,645 L 499,645" fill="none" stroke="#5e5ca7" stroke-width="1.5" stroke-linecap="round" stroke-linejoin="round"/></g></g><g id="20i33kvwty"><g transform="translate(1027 608)"><rect x="0" y="0" width="100" height="50" fill="rgba(255,255,255,1)" stroke="#5e5ca7" stroke-width="1.5" stroke-linecap="round" stroke-linejoin="round"/></g><g transform="translate(1046, 623.5) rotate(0, 31, 9.5)" width="62" height="19"><text text-decoration="none" x="6" fill="rgb(0, 0, 0)" font-weight="bold" font-size="10pt" font-family="Arial"  y="15">Bus_info</text><text text-decoration="none" x="56" fill="#4b4b4b" font-size="10pt" font-family="noto_regular"  y="15"></text></g></g><g id="2du3o9f3my"><g transform="translate(1032 487)"><ellipse cx="50" cy="20.000000298023224" rx="50" ry="20.000000298023224" fill="rgba(255,255,255,1)" stroke="#5e5ca7" stroke-width="1.5" stroke-linecap="round" stroke-linejoin="round"/></g><g transform="translate(1035.5, 497.5000002980232) rotate(0, 46.5, 9.5)" width="93" height="19"><text text-decoration="none" x="10.5" fill="rgb(0, 0, 0)" font-weight="bold" font-size="10pt" font-family="Arial"  y="15">seat&#160;</text><text text-decoration="none" x="38.5" fill="rgb(0, 0, 0)" font-weight="bold" font-size="10pt" font-family="Arial"  y="15">number</text><text text-decoration="none" x="82.5" fill="#4b4b4b" font-size="10pt" font-family="noto_regular"  y="15"></text></g></g><g id="14iiup2brf"><g transform="translate(913 494)"><ellipse cx="52.49999761581421" cy="20.500002801418304" rx="52.49999761581421" ry="20.500002801418304" fill="rgba(255,255,255,1)" stroke="#5e5ca7" stroke-width="1.5" stroke-linecap="round" stroke-linejoin="round"/></g><g transform="translate(914.4999976158142, 505.0000028014183) rotate(0, 51, 9.5)" width="102" height="19"><text text-decoration="none" x="11.5" fill="rgb(0, 0, 0)" font-weight="bold" font-size="10pt" font-family="Arial"  y="15">available&#160;</text><text text-decoration="none" x="65.5" fill="rgb(0, 0, 0)" font-weight="bold" font-size="10pt" font-family="Arial"  y="15">seat</text><text text-decoration="none" x="90.5" fill="#4b4b4b" font-size="10pt" font-family="noto_regular"  y="15"></text></g></g><g id="1ef6h5igh2"><g transform="translate(845 548)"><ellipse cx="50" cy="18.99999976158142" rx="50" ry="18.99999976158142" fill="rgba(255,255,255,1)" stroke="#5e5ca7" stroke-width="1.5" stroke-linecap="round" stroke-linejoin="round"/></g><g transform="translate(859.5, 557.4999997615814) rotate(0, 35.5, 9.5)" width="71" height="19"><text text-decoration="none" x="9" fill="rgb(0, 0, 0)" font-weight="bold" font-size="10pt" font-family="Arial"  y="15">total&#160;</text><text text-decoration="none" x="37" fill="rgb(0, 0, 0)" font-weight="bold" font-size="10pt" font-family="Arial"  y="15">seat</text><text text-decoration="none" x="62" fill="#4b4b4b" font-size="10pt" font-family="noto_regular"  y="15"></text></g></g><g id="zouvoe7k8g"><g transform="translate(827 601)"><ellipse cx="50.999999046325684" cy="25" rx="50.999999046325684" ry="25" fill="rgba(255,255,255,1)" stroke="#5e5ca7" stroke-width="1.5" stroke-linecap="round" stroke-linejoin="round"/></g><g transform="translate(841.9999990463257, 608.5) rotate(0, 36, 17.5)" width="72" height="35"><text text-decoration="none" x="8" fill="rgb(0, 0, 0)" font-weight="bold" font-size="10pt" font-family="Arial"  y="12">departure&#160;</text><text text-decoration="none" x="13.5" fill="rgb(0, 0, 0)" font-weight="bold" font-size="10pt" font-family="Arial"  y="31">location</text><text text-decoration="none" x="58.5" fill="#4b4b4b" font-size="10pt" font-family="noto_regular"  y="31"></text></g></g><g id="1u461mdx7o"><g transform="translate(887 712)"><ellipse cx="52.49999761581421" cy="23.000000417232513" rx="52.49999761581421" ry="23.000000417232513" fill="rgba(255,255,255,1)" stroke="#5e5ca7" stroke-width="1.5" stroke-linecap="round" stroke-linejoin="round"/></g><g transform="translate(903.4999976158142, 717.5000004172325) rotate(0, 36, 17.5)" width="72" height="35"><text text-decoration="none" x="8" fill="rgb(0, 0, 0)" font-weight="bold" font-size="10pt" font-family="Arial"  y="12">departure&#160;</text><text text-decoration="none" x="23.5" fill="rgb(0, 0, 0)" font-weight="bold" font-size="10pt" font-family="Arial"  y="31">time</text><text text-decoration="none" x="48.5" fill="#4b4b4b" font-size="10pt" font-family="noto_regular"  y="31"></text></g></g><g id="2l934t3ei1"><g transform="translate(989 738)"><ellipse cx="50" cy="25" rx="50" ry="25" fill="rgba(255,255,255,1)" stroke="#5e5ca7" stroke-width="1.5" stroke-linecap="round" stroke-linejoin="round"/></g><g transform="translate(1003, 745.5) rotate(0, 36, 17.5)" width="72" height="35"><text text-decoration="none" x="8" fill="rgb(0, 0, 0)" font-weight="bold" font-size="10pt" font-family="Arial"  y="12">departure&#160;</text><text text-decoration="none" x="23.5" fill="rgb(0, 0, 0)" font-weight="bold" font-size="10pt" font-family="Arial"  y="31">date</text><text text-decoration="none" x="48.5" fill="#4b4b4b" font-size="10pt" font-family="noto_regular"  y="31"></text></g></g><g id="5spg1hw639"><g transform="translate(1168 568)"><ellipse cx="50" cy="21.99999988079071" rx="50" ry="21.99999988079071" fill="rgba(255,255,255,1)" stroke="#5e5ca7" stroke-width="1.5" stroke-linecap="round" stroke-linejoin="round"/></g><g transform="translate(1177, 580.4999998807907) rotate(0, 41, 9.5)" width="82" height="19"><text text-decoration="none" x="9.5" fill="rgb(0, 0, 0)" font-weight="bold" font-size="10pt" font-family="Arial"  y="15">destination</text><text text-decoration="none" x="72.5" fill="#4b4b4b" font-size="10pt" font-family="noto_regular"  y="15"></text></g></g><g id="40bqmll381"><g transform="translate(1180 639)"><ellipse cx="50" cy="21.50000035762787" rx="50" ry="21.50000035762787" fill="rgba(255,255,255,1)" stroke="#5e5ca7" stroke-width="1.5" stroke-linecap="round" stroke-linejoin="round"/></g><g transform="translate(1205.5, 651.0000003576279) rotate(0, 24.5, 9.5)" width="49" height="19"><text text-decoration="none" x="4.5" fill="rgb(0, 0, 0)" font-weight="bold" font-size="10pt" font-family="Arial"  y="15">source</text><text text-decoration="none" x="44.5" fill="#4b4b4b" font-size="10pt" font-family="noto_regular"  y="15"></text></g></g><g id="abyixz8ntu"><g transform="translate(1156 714.5)"><ellipse cx="50" cy="18.000000715255737" rx="50" ry="18.000000715255737" fill="rgba(255,255,255,1)" stroke="#5e5ca7" stroke-width="1.5" stroke-linecap="round" stroke-linejoin="round"/></g><g transform="translate(1162.5, 723.0000007152557) rotate(0, 43.5, 9.5)" width="87" height="19"><text text-decoration="none" x="9.5" fill="rgb(0, 0, 0)" font-weight="bold" font-size="10pt" font-family="Arial"  y="15">bus&#160;</text><text text-decoration="none" x="33.5" fill="rgb(0, 0, 0)" font-weight="bold" font-size="10pt" font-family="Arial"  y="15">number</text><text text-decoration="none" x="77.5" fill="#4b4b4b" font-size="10pt" font-family="noto_regular"  y="15"></text></g></g><g id="16kcn8tv4d"><g transform="translate(1152 499)"><ellipse cx="50" cy="21.50000035762787" rx="50" ry="21.50000035762787" fill="rgba(255,255,255,1)" stroke="#5e5ca7" stroke-width="1.5" stroke-linecap="round" stroke-linejoin="round"/></g><g transform="translate(1160, 511.00000035762787) rotate(0, 42, 9.5)" width="84" height="19"><text text-decoration="none" x="9.5" fill="rgb(0, 0, 0)" font-weight="bold" font-size="10pt" font-family="Arial"  y="15">arrival&#160;</text><text text-decoration="none" x="49.5" fill="rgb(0, 0, 0)" font-weight="bold" font-size="10pt" font-family="Arial"  y="15">time</text><text text-decoration="none" x="74.5" fill="#4b4b4b" font-size="10pt" font-family="noto_regular"  y="15"></text></g></g><g id="2g4jaxgjkf"><g><path d="M 1152,519 L 1139,519 L 1139,545.5 L 1139,572 L 1120.5,575.125 L 1102,578.25 L 1102,608" fill="none" stroke="#5e5ca7" stroke-width="1.5" stroke-linecap="round" stroke-linejoin="round"/></g></g><g id="2abpb71z3o"><g><path d="M 1082,527 L 1082,567.5000002980232 L 1079.5,567.5000002980232 L 1077,567.5000002980232 L 1077,608" fill="none" stroke="#5e5ca7" stroke-width="1.5" stroke-linecap="round" stroke-linejoin="round"/></g></g><g id="80ki3sq13c"><g><path d="M 1018,514 L 1027,514 L 1027,537.125 L 1027,560.25 L 1034.5,560.25 L 1042,560.25 L 1042,608" fill="none" stroke="#5e5ca7" stroke-width="1.5" stroke-linecap="round" stroke-linejoin="round"/></g></g><g id="1k82c6qy7g"><g><path d="M 945,568 L 986,568 L 986,593 L 986,618 L 1022,618" fill="none" stroke="#5e5ca7" stroke-width="1.5" stroke-linecap="round" stroke-linejoin="round"/></g></g><g id="bfp1t3ameo"><g><path d="M 927,626 L 977.9999990463257,626 L 977.9999990463257,629.5 L 977.9999990463257,633 L 1027,633" fill="none" stroke="#5e5ca7" stroke-width="1.5" stroke-linecap="round" stroke-linejoin="round"/></g></g><g id="2lbyz2ajpr"><g><path d="M 937,712 L 937,685 L 992,685 L 1047,685 L 1047,658" fill="none" stroke="#5e5ca7" stroke-width="1.5" stroke-linecap="round" stroke-linejoin="round"/></g></g><g id="14lxclxht2"><g><path d="M 1039,738 L 1039,698 L 1058,698 L 1077,698 L 1077,658" fill="none" stroke="#5e5ca7" stroke-width="1.5" stroke-linecap="round" stroke-linejoin="round"/></g></g><g id="11ydqgwhr3"><g><path d="M 1206,714.5 L 1206,686.25 L 1161.5,686.25 L 1117,686.25 L 1117,658" fill="none" stroke="#5e5ca7" stroke-width="1.5" stroke-linecap="round" stroke-linejoin="round"/></g></g><g id="7j39qyxi0p"><g><path d="M 1180,659 L 1153.5,659 L 1153.5,646 L 1153.5,633 L 1127,633" fill="none" stroke="#5e5ca7" stroke-width="1.5" stroke-linecap="round" stroke-linejoin="round"/></g></g><g id="1wjtsyaguj"><g><path d="M 1168,588 L 1147.5,588 L 1147.5,610.5 L 1147.5,633 L 1127,633" fill="none" stroke="#5e5ca7" stroke-width="1.5" stroke-linecap="round" stroke-linejoin="round"/></g></g><g id="1kfflqn1o0"><g transform="translate(692 717)"><path d="M 100,25 L 50,50 L 0,25 L 50,0 Z" fill="rgb(255, 255, 255)" stroke="rgb(94, 92, 167)" stroke-width="1.5" vector-effect="non-scaling-stroke"/></g><g transform="translate(712.5, 730.5) rotate(0, 0, 0)" width="63" height="19"><text text-decoration="none" x="0" fill="#000000" font-weight="bold" font-size="11pt" font-family="Arial"  y="15">boards&#160;</text><text text-decoration="none" x="49" fill="#4b4b4b" font-size="10pt" font-family="noto_regular"  y="15"></text></g></g><g id="23zfuhbbt4"><g><path d="M 692,742 L 449,670" fill="none" stroke="#5e5ca7" stroke-width="1.5" stroke-linecap="round" stroke-linejoin="round"/></g></g><g id="2m0bl8gsdd"><g><path d="M 792,742 L 1022,643" fill="none" stroke="#5e5ca7" stroke-width="1.5" stroke-linecap="round" stroke-linejoin="round"/></g></g><g id="1kjr9n52vx"><g transform="translate(380 912)"><rect x="0" y="0" width="100" height="50" fill="rgba(255,255,255,1)" stroke="#5e5ca7" stroke-width="1.5" stroke-linecap="round" stroke-linejoin="round"/></g><g transform="translate(409, 927.5) rotate(0, 21, 9.5)" width="42" height="19"><text text-decoration="none" x="5" fill="rgb(0, 0, 0)" font-weight="bold" font-size="10pt" font-family="Arial"  y="15">ticket</text><text text-decoration="none" x="37" fill="#4b4b4b" font-size="10pt" font-family="noto_regular"  y="15"></text></g></g><g id="ajhumrqb5y"><g transform="translate(246 870)"><ellipse cx="50" cy="25" rx="50" ry="25" fill="rgba(255,255,255,1)" stroke="#5e5ca7" stroke-width="1.5" stroke-linecap="round" stroke-linejoin="round"/></g><g transform="translate(268, 877.5) rotate(0, 28, 17.5)" width="56" height="35"><text text-decoration="none" x="12" fill="rgb(0, 0, 0)" font-weight="bold" font-size="10pt" font-family="Arial"  y="12">ticket&#160;</text><text text-decoration="none" x="6" fill="rgb(0, 0, 0)" font-weight="bold" font-size="10pt" font-family="Arial"  y="31">number</text><text text-decoration="none" x="50" fill="#4b4b4b" font-size="10pt" font-family="noto_regular"  y="31"></text></g></g><g id="1ule5jwfrx"><g transform="translate(250.5 945.5)"><ellipse cx="50" cy="25" rx="50" ry="25" fill="rgba(255,255,255,1)" stroke="#5e5ca7" stroke-width="1.5" stroke-linecap="round" stroke-linejoin="round"/></g><g transform="translate(259, 961) rotate(0, 41.5, 9.5)" width="83" height="19"><text text-decoration="none" x="9.5" fill="rgb(0, 0, 0)" font-weight="bold" font-size="10pt" font-family="Arial"  y="15">ticket&#160;</text><text text-decoration="none" x="44.5" fill="rgb(0, 0, 0)" font-weight="bold" font-size="10pt" font-family="Arial"  y="15">price</text><text text-decoration="none" x="73.5" fill="#4b4b4b" font-size="10pt" font-family="noto_regular"  y="15"></text></g></g><g id="2kwe5ilf7z"><g transform="translate(528 909)"><ellipse cx="50" cy="25" rx="50" ry="25" fill="rgba(255,255,255,1)" stroke="#5e5ca7" stroke-width="1.5" stroke-linecap="round" stroke-linejoin="round"/></g><g transform="translate(541.5, 924.5) rotate(0, 36.5, 9.5)" width="73" height="19"><text text-decoration="none" x="8" fill="rgb(0, 0, 0)" font-weight="bold" font-size="10pt" font-family="Arial"  y="15">final&#160;</text><text text-decoration="none" x="36" fill="rgb(0, 0, 0)" font-weight="bold" font-size="10pt" font-family="Arial"  y="15">price</text><text text-decoration="none" x="65" fill="#4b4b4b" font-size="10pt" font-family="noto_regular"  y="15"></text></g></g><g id="1f75i4u2eu"><g><path d="M 528,934 L 504,934 L 504,935.5 L 504,937 L 480,937" fill="none" stroke="#5e5ca7" stroke-width="1.5" stroke-linecap="round" stroke-linejoin="round"/></g></g><g id="d0vzh9e6g8"><g><path d="M 346,895 L 363,895 L 363,891 L 363,887 L 379,887 L 395,887 L 395,907" fill="none" stroke="#5e5ca7" stroke-width="1.5" stroke-linecap="round" stroke-linejoin="round"/></g></g><g id="5zdh6dzzon"><g><path d="M 350.5,970.5 L 365.25,970.5 L 365.25,953.75 L 365.25,937 L 380,937" fill="none" stroke="#5e5ca7" stroke-width="1.5" stroke-linecap="round" stroke-linejoin="round"/></g></g><g id="1sguj0d960"><g transform="translate(452 788)"><path d="M 100,25 L 50,50 L 0,25 L 50,0 Z" fill="rgb(255, 255, 255)" stroke="rgb(94, 92, 167)" stroke-width="1.5" vector-effect="non-scaling-stroke"/></g><g transform="translate(480.5, 801.5) rotate(0, 0, 0)" width="46" height="19"><text text-decoration="none" x="0" fill="#000000" font-weight="bold" font-size="11pt" font-family="Arial"  y="15">buys&#160;</text><text text-decoration="none" x="36" fill="#4b4b4b" font-size="10pt" font-family="noto_regular"  y="15"></text></g></g><g id="1hac9sdp16"><g><path d="M 502,788 L 449,670" fill="none" stroke="#5e5ca7" stroke-width="1.5" stroke-linecap="round" stroke-linejoin="round"/></g></g><g id="cbyp3et0hh"><g><path d="M 502,838 L 430,912" fill="none" stroke="#5e5ca7" stroke-width="1.5" stroke-linecap="round" stroke-linejoin="round"/></g></g><g id="3p0rxb5xws"><g transform="translate(990 898)"><rect x="0" y="0" width="100" height="50" fill="rgba(255,255,255,1)" stroke="#5e5ca7" stroke-width="1.5" stroke-linecap="round" stroke-linejoin="round"/></g><g transform="translate(1020.5, 913.5) rotate(0, 19.5, 9.5)" width="39" height="19"><text text-decoration="none" x="4.5" fill="rgb(0, 0, 0)" font-weight="bold" font-size="10pt" font-family="Arial"  y="15">route</text><text text-decoration="none" x="34.5" fill="#4b4b4b" font-size="10pt" font-family="noto_regular"  y="15"></text></g></g><g id="1dbv1xtrl1"><g transform="translate(1136.5 922.5)"><ellipse cx="50" cy="25" rx="50" ry="25" fill="rgba(255,255,255,1)" stroke="#5e5ca7" stroke-width="1.5" stroke-linecap="round" stroke-linejoin="round"/></g><g transform="translate(1146, 938) rotate(0, 40.5, 9.5)" width="81" height="19"><text text-decoration="none" x="10" fill="rgb(0, 0, 0)" font-weight="bold" font-size="10pt" font-family="Arial"  y="15">route&#160;</text><text text-decoration="none" x="43" fill="rgb(0, 0, 0)" font-weight="bold" font-size="10pt" font-family="Arial"  y="15">point</text><text text-decoration="none" x="71" fill="#4b4b4b" font-size="10pt" font-family="noto_regular"  y="15"></text></g></g><g id="5vbeu7vxt2"><g transform="translate(867 837)"><ellipse cx="50" cy="25" rx="50" ry="25" fill="rgba(255,255,255,1)" stroke="#5e5ca7" stroke-width="1.5" stroke-linecap="round" stroke-linejoin="round"/></g><g transform="translate(888.5, 852.5) rotate(0, 28.5, 9.5)" width="57" height="19"><text text-decoration="none" x="7" fill="rgb(0, 0, 0)" font-weight="bold" font-size="10pt" font-family="Arial"  y="15">route&#160;</text><text text-decoration="none" x="40" fill="rgb(0, 0, 0)" font-weight="bold" font-size="10pt" font-family="Arial"  y="15">id</text><text text-decoration="none" x="50" fill="#4b4b4b" font-size="10pt" font-family="noto_regular"  y="15"></text></g></g><g id="6be603d5fw"><g transform="translate(848.4 942.5)"><ellipse cx="62.00000047683716" cy="25" rx="62.00000047683716" ry="25" fill="rgba(255,255,255,1)" stroke="#5e5ca7" stroke-width="1.5" stroke-linecap="round" stroke-linejoin="round"/></g><g transform="translate(862.9000004768371, 958) rotate(0, 47.5, 9.5)" width="95" height="19"><text text-decoration="none" x="11.5" fill="rgb(0, 0, 0)" font-weight="bold" font-size="10pt" font-family="Arial"  y="15">pick&#160;</text><text text-decoration="none" x="38.5" fill="rgb(0, 0, 0)" font-weight="bold" font-size="10pt" font-family="Arial"  y="15">up&#160;</text><text text-decoration="none" x="55.5" fill="rgb(0, 0, 0)" font-weight="bold" font-size="10pt" font-family="Arial"  y="15">point</text><text text-decoration="none" x="83.5" fill="#4b4b4b" font-size="10pt" font-family="noto_regular"  y="15"></text></g></g><g id="2078er59w3"><g><path d="M 973.4,967.5 L 1040,967.5 L 1040,948" fill="none" stroke="#5e5ca7" stroke-width="1.5" stroke-linecap="round" stroke-linejoin="round"/></g></g><g id="4c9o9a2fui"><g><path d="M 1136.5,947.5 L 1113.25,947.5 L 1113.25,935.25 L 1113.25,923 L 1090,923" fill="none" stroke="#5e5ca7" stroke-width="1.5" stroke-linecap="round" stroke-linejoin="round"/></g></g><g id="2ebgu9vgi0"><g><path d="M 967,862 L 978.5,862 L 978.5,892.5 L 978.5,923 L 990,923" fill="none" stroke="#5e5ca7" stroke-width="1.5" stroke-linecap="round" stroke-linejoin="round"/></g></g><g id="2c03bskpvv"><g transform="translate(1123 794)"><path d="M 141.00000858306885,24.50000047683716 L 70.50000429153442,49.000000953674316 L -6.173154580190656e-16,24.500000476837158 L 70.50000429153442,1.776356799695581e-15 Z" fill="rgb(255, 255, 255)" stroke="rgb(94, 92, 167)" stroke-width="1.5" vector-effect="non-scaling-stroke"/></g><g transform="translate(1138, 807) rotate(0, 0, 0)" width="127" height="19"><text text-decoration="none" x="0" fill="#000000" font-weight="bold" font-size="11pt" font-family="Arial"  y="15">travel&#160;</text><text text-decoration="none" x="42" fill="#000000" font-weight="bold" font-size="11pt" font-family="Arial"  y="15">through&#160;</text><text text-decoration="none" x="97" fill="#4b4b4b" font-size="10pt" font-family="noto_regular"  y="15"></text></g></g><g id="29vs8tvyrq"><g><path d="M 1193,794 L 1077,658" fill="none" stroke="#5e5ca7" stroke-width="1.5" stroke-linecap="round" stroke-linejoin="round"/></g></g><g id="cuyq0bqqb3"><g><path d="M 1193,844 L 1040,898" fill="none" stroke="#5e5ca7" stroke-width="1.5" stroke-linecap="round" stroke-linejoin="round"/></g></g><g id="127vwct5ab"><g transform="translate(520 420)"><rect x="0" y="0" width="360.0000071525574" height="75.99960327148438" fill="rgba(255,255,255,0.01)" stroke="rgba(255,255,255,0.01)" stroke-width="NaN" stroke-linecap="round" stroke-linejoin="round"/></g><g transform="translate(529.0000035762787, 429.9998016357422) rotate(0, 171, 28)" width="342" height="56"><text text-decoration="none" x="19.5" fill="rgb(0, 0, 0)" font-size="18pt" font-family="Arial"  y="22">ER&#160;</text><text text-decoration="none" x="54.5" fill="rgb(0, 0, 0)" font-size="18pt" font-family="Arial"  y="22">Diagram&#160;</text><text text-decoration="none" x="150.5" fill="rgb(0, 0, 0)" font-size="18pt" font-family="Arial"  y="22">of&#160;</text><text text-decoration="none" x="178.5" fill="rgb(0, 0, 0)" font-size="18pt" font-family="Arial"  y="22">Bus&#160;</text><text text-decoration="none" x="224.5" fill="rgb(0, 0, 0)" font-size="18pt" font-family="Arial"  y="22">Ticketing&#160;</text><text text-decoration="none" x="131.5" fill="rgb(0, 0, 0)" font-size="18pt" font-family="Arial"  y="50">System</text><text text-decoration="none" x="210.5" fill="#4b4b4b" font-size="10pt" font-family="noto_regular"  y="50"></text></g></g><g id="21q3d1dzhg"><g><path d="M 516.95,563.5 L 603,564" fill="none" stroke="#000000" stroke-width="1" stroke-linecap="round" stroke-linejoin="round"/></g></g><g id="5na1xv8i9u"><g><path d="M 268,910.5 L 325,910" fill="none" stroke="#000000" stroke-width="1" stroke-linecap="round" stroke-linejoin="round"/></g></g><g id="1435fqqykk"><g><path d="M 885.5,865.5 L 950,865" fill="none" stroke="#000000" stroke-width="1" stroke-linecap="round" stroke-linejoin="round"/></g></g><g id="19rn2pwrxy"><g><path d="M 1169,735 L 1245,735" fill="none" stroke="#000000" stroke-width="1" stroke-linecap="round" stroke-linejoin="round"/></g></g><g id="1bcii3l8sx"><g transform="translate(585 764.7533363103867) rotate(-21.40895144765435)"><rect x="0" y="0" width="150.00000051564538" height="37.00000012719253" fill="rgba(255,255,255,0.01)" stroke="rgba(255,255,255,0.01)" stroke-width="NaN" stroke-linecap="round" stroke-linejoin="round"/></g><g transform="translate(644.5778216421604, 745.1001459956169) rotate(-21.41, 17, 9.5)" width="34" height="19"><text text-decoration="none" x="1.5" fill="rgb(0, 0, 0)" font-size="9pt" font-family="Arial"  y="15">many</text><text text-decoration="none" x="32.5" fill="#4b4b4b" font-size="10pt" font-family="noto_regular"  y="15"></text></g></g><g id="1uw0b1isud"><g transform="translate(755 730.7977485656738) rotate(-19.794746853374242)"><rect x="0" y="0" width="150.0000011774392" height="37.000000290435004" fill="rgba(255,255,255,0.01)" stroke="rgba(255,255,255,0.01)" stroke-width="NaN" stroke-linecap="round" stroke-linejoin="round"/></g><g transform="translate(820.8334428668022, 713.3057431280613) rotate(-19.79, 11, 9.5)" width="22" height="19"><text text-decoration="none" x="1" fill="rgb(0, 0, 0)" font-size="9pt" font-family="Arial"  y="15">one</text><text text-decoration="none" x="21" fill="#4b4b4b" font-size="10pt" font-family="noto_regular"  y="15"></text></g></g><g id="2ahzvsewxr"><g transform="translate(447.7455289363861 680) rotate(62.25327978545657)"><rect x="0" y="0" width="150.0000010791928" height="37.00000026620089" fill="rgba(255,255,255,0.01)" stroke="rgba(255,255,255,0.01)" stroke-width="NaN" stroke-linecap="round" stroke-linejoin="round"/></g><g transform="translate(455.2900542318821, 745.4890036433935) rotate(62.25, 11, 9.5)" width="22" height="19"><text text-decoration="none" x="1" fill="rgb(0, 0, 0)" font-size="9pt" font-family="Arial"  y="15">one</text><text text-decoration="none" x="21" fill="#4b4b4b" font-size="10pt" font-family="noto_regular"  y="15"></text></g></g><g id="1j5xcbaa7o"><g transform="translate(415 917.8221005678178) rotate(-43.90626861528684)"><rect x="0" y="0" width="150.00000265780196" height="37.000000655591144" fill="rgba(255,255,255,0.01)" stroke="rgba(255,255,255,0.01)" stroke-width="NaN" stroke-linecap="round" stroke-linejoin="round"/></g><g transform="translate(470.86503663659096, 869.6398425281049) rotate(-43.91, 11, 9.5)" width="22" height="19"><text text-decoration="none" x="1" fill="rgb(0, 0, 0)" font-size="9pt" font-family="Arial"  y="15">one</text><text text-decoration="none" x="21" fill="#4b4b4b" font-size="10pt" font-family="noto_regular"  y="15"></text></g></g><g id="22mo2ivyag"><g transform="translate(1153.897402048111 745) rotate(51.35322517565709)"><rect x="0" y="0" width="47.999998379472856" height="36.99999875084366" fill="rgba(255,255,255,0.01)" stroke="rgba(255,255,255,0.01)" stroke-width="NaN" stroke-linecap="round" stroke-linejoin="round"/></g><g transform="translate(1137.4371181726456, 765.7978323400021) rotate(51.35, 17, 9.5)" width="34" height="19"><text text-decoration="none" x="1.5" fill="rgb(0, 0, 0)" font-size="9pt" font-family="Arial"  y="15">many</text><text text-decoration="none" x="32.5" fill="#4b4b4b" font-size="10pt" font-family="noto_regular"  y="15"></text></g></g><g id="1xhqqvpghc"><g transform="translate(1087 892.6574645757676) rotate(-23.97782816860391)"><rect x="0" y="0" width="150.00000020655318" height="37.00000005094978" fill="rgba(255,255,255,0.01)" stroke="rgba(255,255,255,0.01)" stroke-width="NaN" stroke-linecap="round" stroke-linejoin="round"/></g><g transform="translate(1152.0457962453365, 869.5822338283062) rotate(-23.98, 11, 9.5)" width="22" height="19"><text text-decoration="none" x="1" fill="rgb(0, 0, 0)" font-size="9pt" font-family="Arial"  y="15">one</text><text text-decoration="none" x="21" fill="#4b4b4b" font-size="10pt" font-family="noto_regular"  y="15"></text></g></g></svg>